<svg width="635" height="429" viewBox="0 0 635 429" fill="none" xmlns="http://www.w3.org/2000/svg">
<path fill-rule="evenodd" clip-rule="evenodd" d="M312.89 344.359C247.423 344.359 77.0355 336.897 28.1369 320.885C15.6597 317.065 12.4267 306.516 11.1891 299.762C5.30408 280.082 0.505151 244.237 0.505151 173.611C0.505151 102.984 5.30408 65.8495 11.1891 46.9281C12.4267 39.4657 15.6597 30.1821 28.1369 25.0976C77.0355 9.05984 247.423 2.33109 312.89 2.8623C378.181 2.30579 548.038 9.05984 596.735 25.0723C609.414 30.1821 613.329 39.4657 614.39 46.9028C619.744 65.8242 625.276 102.048 625.276 173.586C625.276 245.123 619.744 280.057 614.39 299.712C613.329 306.441 609.389 317.014 596.735 320.834C548.038 336.846 378.181 344.309 312.89 344.309V344.359Z" fill="white"/>
<path d="M317.487 345.7H317.462C284.552 345.7 225.474 343.853 168.619 340.059C159.123 339.427 149.878 338.744 141.089 338.061C94.438 334.317 52.3842 329.156 31.4456 322.453C17.1246 318.153 13.7906 307.376 11.3912 299.636C11.2143 299.079 11.0628 298.573 10.9618 298.245V298.169C7.90561 288.227 5.15254 274.264 3.18245 254.002C1.21236 233.866 0 207.583 0 172.877C0 138.171 1.33865 111.13 3.38451 90.9179C5.43037 70.5546 8.15819 56.7176 10.9113 47.1304C11.9721 43.1337 13.2097 38.631 16.0638 34.1535C19.0442 29.4738 23.5653 25.1987 30.991 22.2138L31.3699 22.0873L31.6982 21.9861C38.8209 19.7095 48.3429 17.6352 59.6331 15.738C70.7464 13.8914 83.6277 12.1966 97.6457 10.6788C169.074 2.96349 270.332 -0.350299 317.487 0.0291425H317.891C327.136 -0.0467458 338.401 0.0291425 351.055 0.231511C363.81 0.459176 377.903 0.813321 392.704 1.31924C469.336 3.95003 567.259 10.6029 602.721 22.062L602.999 22.1379L603.226 22.2391H603.251C605.07 22.998 606.712 23.858 608.202 24.7687C609.692 25.6794 611.132 26.7165 612.47 27.8548C619.164 33.4958 622.548 40.7558 623.988 47.434C626.716 56.9959 629.469 70.7317 631.514 90.7915C633.586 111.003 635 137.64 635 172.827C635 208.013 633.611 233.866 631.514 253.976C629.418 274.163 626.64 288.076 623.912 297.966L623.861 298.169L623.76 298.422C623.432 299.307 623.205 299.965 622.952 300.648C619.921 309.122 616.688 318.178 602.771 322.352H602.67V322.377C595.573 324.654 586.177 326.753 575.089 328.65C564.077 330.548 551.271 332.268 537.304 333.836C465.926 341.855 364.593 345.649 317.538 345.649L317.487 345.7ZM317.462 335H317.487C364.365 335 465.219 331.231 536.091 323.262C549.781 321.719 562.385 320.024 573.245 318.153C583.98 316.306 592.921 314.333 599.437 312.233H599.463L599.614 312.183C608.454 309.552 610.753 303.127 612.925 297.081C613.203 296.322 613.455 295.563 613.683 294.981C616.259 285.597 618.911 272.316 620.906 252.939C622.927 233.31 624.291 207.406 624.291 172.877C624.291 138.348 622.927 111.661 620.906 91.9298C618.886 72.2747 616.234 59.0702 613.657 50.0648L613.556 49.7106C612.546 44.9803 610.222 39.9211 605.651 36.076C604.792 35.3678 603.807 34.6595 602.696 33.9512C601.635 33.2935 600.523 32.7117 599.336 32.2057C564.759 21.1261 468.224 14.625 392.452 12.0195C377.525 11.5136 363.507 11.1594 350.954 10.9318C338.35 10.7294 327.161 10.6535 318.018 10.7294H317.487C270.66 10.3499 169.958 13.6384 98.8075 21.3284C85.0169 22.8209 72.3629 24.4652 61.4264 26.2865C50.6666 28.0825 41.6497 30.0556 34.9564 32.1805C29.9302 34.2041 26.9751 36.9614 25.0807 39.8958C23.1107 43.0072 22.1004 46.6751 21.2416 49.9636V50.0648C18.5896 59.1967 15.988 72.4265 14.0179 91.9804C12.0478 111.686 10.7345 137.867 10.7345 172.877C10.7345 207.887 11.9216 233.385 13.8411 252.99C15.7355 272.392 18.3117 285.647 21.1658 294.981C21.3679 295.588 21.4942 296.044 21.6457 296.499C23.338 301.938 25.6869 309.527 34.5523 312.208L34.6534 312.259C54.6321 318.684 95.9282 323.718 141.998 327.411C151.242 328.145 160.411 328.828 169.402 329.409C226.232 333.204 284.981 335.025 317.538 335.025L317.462 335Z" fill="#EF3E33"/>
<path d="M317.487 326.197H317.007C306.475 326.273 294.478 326.197 281.521 325.918C268.437 325.666 254.445 325.261 240.073 324.73C165.639 321.947 77.9448 315.421 43.9481 306.744L43.4682 306.618L42.9378 306.365C39.225 304.569 36.5224 303.101 34.1735 300.926C31.6477 298.599 29.9555 295.816 28.5915 291.566L28.4905 291.238C26.2173 282.232 23.7168 269.002 21.7973 249.701C19.8777 230.527 18.5138 205.459 18.5138 172.801C18.5138 140.144 19.8777 114.443 21.7973 95.3701C23.7168 76.2462 26.2173 63.1681 28.4905 53.8845L28.541 53.6821C29.9049 48.8759 31.6477 45.8403 34.2997 43.5131C36.8508 41.2617 39.7806 40.1234 43.7713 38.9345L43.9734 38.8586L44.1502 38.808C50.9445 37.0879 59.7341 35.4436 70.0644 33.8753C80.1674 32.3322 91.9627 30.8651 104.92 29.4738C170.514 22.4162 263.714 17.8882 317.487 18.5206H317.715C328.096 18.3941 339.941 18.47 352.797 18.7229C365.78 18.9759 379.646 19.4059 393.917 19.9877C467.896 22.998 555.59 30.1821 589.587 38.8586C594.057 40.0475 597.316 41.1859 599.993 43.4119C602.923 45.8656 604.59 49.1035 605.449 54.188C607.52 63.4211 610.046 76.398 612.041 95.3195C614.036 114.393 615.526 139.461 615.526 172.776C615.526 206.091 614.036 230.527 612.041 249.701C610.02 268.926 607.495 282.131 605.398 291.111C604.514 295.588 602.898 298.523 600.094 301.002C597.594 303.203 594.537 304.644 590.345 306.466L589.941 306.643L589.562 306.744L589.233 306.82C582.439 308.54 573.599 310.159 563.269 311.677C553.14 313.169 541.345 314.586 528.438 315.901C463.021 322.605 370.351 326.551 317.437 326.171L317.487 326.197ZM316.957 315.522H317.513C370.074 315.901 462.238 311.98 527.403 305.302C539.931 304.012 551.549 302.621 561.753 301.128C571.705 299.661 580.141 298.118 586.581 296.499C589.637 295.184 591.81 294.172 593.073 293.059C594.007 292.224 594.613 291.01 594.992 288.986L595.043 288.784C597.063 280.082 599.513 267.307 601.458 248.69C603.428 229.996 604.868 205.332 604.868 172.852C604.868 140.372 603.403 115.101 601.458 96.4831C599.513 77.9158 597.038 65.3183 595.043 56.3635L594.967 56.0599C594.563 53.6821 594.032 52.392 593.174 51.6837C592.062 50.7478 589.966 50.0901 586.985 49.3059C553.595 40.8064 466.861 33.7235 393.513 30.7639C379.091 30.1821 365.3 29.752 352.646 29.4991C339.866 29.2461 328.096 29.1702 317.841 29.2967H317.412C264.068 28.6643 171.347 33.167 106.031 40.1993C93.4782 41.54 81.8597 43.0072 71.6304 44.5502C61.6032 46.068 53.1419 47.6617 46.7265 49.2806L46.5497 49.3312C44.0492 50.0901 42.3064 50.7225 41.2961 51.6331C40.3363 52.4932 39.5786 53.9857 38.7956 56.6923C36.6234 65.5966 34.2492 78.1181 32.4054 96.5084C30.5364 115.101 29.223 139.765 29.223 172.903C29.223 206.04 30.5364 230.072 32.4054 248.74C34.2492 267.257 36.6487 279.981 38.8461 288.632C39.5786 290.833 40.3616 292.199 41.4224 293.16C42.6095 294.248 44.4533 295.26 47.0548 296.524C80.7231 304.973 167.003 311.348 240.452 314.08C254.975 314.611 268.867 315.016 281.697 315.269C294.629 315.522 306.551 315.598 316.982 315.547L316.957 315.522Z" fill="#EF3E33"/>
<path fill-rule="evenodd" clip-rule="evenodd" d="M53.3945 165.592H109.744C125.277 165.592 137.957 178.291 137.957 193.848C137.957 209.405 125.277 222.103 109.744 222.103C94.2106 222.103 81.5314 209.253 81.5314 193.696V175.862H53.3945V193.772C53.3945 224.861 78.753 250.283 109.744 250.283C140.735 250.283 166.094 224.886 166.094 193.848C166.094 162.809 140.735 137.412 109.744 137.412H81.5314V94.9147H53.3945V165.592ZM491.411 137.412C522.452 137.412 547.735 162.733 547.735 193.848C547.735 224.962 522.452 250.283 491.411 250.283C460.369 250.283 435.061 224.962 435.061 193.848C435.061 162.733 460.344 137.412 491.411 137.412ZM491.411 165.592C507.02 165.592 519.624 178.291 519.624 193.848C519.624 209.405 507.02 222.103 491.411 222.103C475.802 222.103 463.198 209.481 463.198 193.848C463.198 178.215 475.877 165.592 491.411 165.592ZM198.246 201.411H281.167C281.495 198.806 281.647 196.124 281.647 193.671C281.647 162.556 256.288 137.412 225.323 137.412C194.357 137.412 168.973 162.481 168.973 193.595C168.973 224.709 194.407 250.258 225.323 250.258C251.338 250.258 273.438 232.272 279.778 208.418H249.545C244.67 216.488 235.4 222.103 225.146 222.103C212.466 222.103 201.404 213.149 198.145 201.436H281.066H198.221L198.246 201.411ZM251.338 182.92C246.943 172.751 236.941 165.567 225.171 165.567C213.401 165.567 203.626 172.725 199.307 182.92H251.338ZM314.179 181.781C314.179 173.307 321.099 166.401 329.535 166.401C337.971 166.401 344.816 173.333 344.816 181.301V248.158H372.928V180.82C372.928 172.346 379.848 165.44 388.284 165.44C396.72 165.44 403.565 172.371 403.565 180.82V248.158H431.702V180.744C431.702 156.713 412.178 137.184 388.284 137.184C378.131 137.184 368.609 140.777 361.208 146.873C354.944 140.928 346.155 137.184 336.658 137.184C328.272 137.184 320.316 140.119 314.128 145.077V140.018H285.991V248.133H314.128V181.781H314.179ZM579.863 248.133H551.726V94.8894H579.863V248.133Z" fill="#0097D7"/>
<path d="M30.3343 414.859H6.1881V372.843H30.3343V380.128H15.0788V389.361H29.2735V396.646H15.0788V407.473H30.3343V414.859Z" fill="white"/>
<path d="M59.0016 405.323C59.0016 408.611 57.865 411.116 55.5666 412.861C53.2682 414.607 49.8584 415.441 45.312 415.441C42.9883 415.441 40.993 415.29 39.3513 414.961C37.7095 414.657 36.1688 414.177 34.7291 413.569V406.335C36.3456 407.094 38.1894 407.751 40.21 408.257C42.2559 408.763 44.0492 409.041 45.5899 409.041C48.7723 409.041 50.3635 408.131 50.3635 406.284C50.3635 405.601 50.1615 405.045 49.7321 404.615C49.3027 404.185 48.5955 403.704 47.56 403.147C46.5244 402.591 45.1605 401.958 43.4177 401.225C40.9425 400.188 39.1492 399.227 37.9874 398.341C36.8255 397.456 35.992 396.444 35.4616 395.306C34.9312 394.167 34.6786 392.776 34.6786 391.106C34.6786 388.248 35.7899 386.047 37.9874 384.479C40.1848 382.911 43.3167 382.126 47.3832 382.126C51.4496 382.126 55.0109 382.961 58.648 384.656L56.0212 390.98C54.4048 390.297 52.9146 389.715 51.5254 389.285C50.1362 388.855 48.6965 388.627 47.2569 388.627C44.6806 388.627 43.3925 389.336 43.3925 390.727C43.3925 391.511 43.7966 392.194 44.6301 392.776C45.4636 393.358 47.2821 394.193 50.0857 395.331C52.5862 396.343 54.43 397.304 55.5919 398.164C56.7537 399.049 57.6125 400.061 58.1681 401.2C58.7238 402.338 59.0016 403.729 59.0016 405.298V405.323Z" fill="white"/>
<path d="M77.1113 415.441C67.1346 415.441 62.1336 409.952 62.1336 398.974C62.1336 393.51 63.4975 389.336 66.2 386.452C68.9278 383.568 72.8175 382.126 77.869 382.126C81.5819 382.126 84.9159 382.86 87.8458 384.302L85.2695 391.081C83.9056 390.525 82.6174 390.069 81.4303 389.715C80.2432 389.361 79.0561 389.184 77.869 389.184C73.3227 389.184 71.0495 392.422 71.0495 398.898C71.0495 405.373 73.3227 408.333 77.869 408.333C79.5613 408.333 81.102 408.105 82.5417 407.65C83.9813 407.195 85.421 406.487 86.8354 405.551V413.038C85.421 413.949 83.9813 414.556 82.5417 414.91C81.102 415.264 79.2834 415.441 77.086 415.441H77.1113Z" fill="white"/>
<path d="M121.666 398.746C121.666 403.982 120.276 408.055 117.523 411.014C114.77 413.974 110.931 415.441 106.031 415.441C102.95 415.441 100.247 414.758 97.873 413.418C95.524 412.077 93.7055 410.129 92.4426 407.6C91.1797 405.07 90.5483 402.11 90.5483 398.746C90.5483 393.484 91.9122 389.412 94.64 386.503C97.3678 383.594 101.207 382.126 106.183 382.126C109.264 382.126 111.967 382.784 114.341 384.125C116.69 385.465 118.508 387.388 119.771 389.892C121.034 392.397 121.666 395.331 121.666 398.721V398.746ZM99.4895 398.746C99.4895 401.933 100.02 404.336 101.055 405.955C102.091 407.574 103.783 408.409 106.157 408.409C108.532 408.409 110.173 407.6 111.184 405.981C112.219 404.362 112.724 401.958 112.724 398.746C112.724 395.533 112.194 393.181 111.184 391.587C110.148 389.993 108.456 389.209 106.107 389.209C103.758 389.209 102.091 389.993 101.055 391.587C100.02 393.155 99.5147 395.559 99.5147 398.746H99.4895Z" fill="white"/>
<path d="M135.886 414.859H127.146V370.161H135.886V414.859Z" fill="white"/>
<path d="M172.913 414.859H164.174V396.09C164.174 391.461 162.457 389.133 159.022 389.133C156.572 389.133 154.804 389.968 153.717 391.638C152.631 393.307 152.076 396.014 152.076 399.732V414.834H143.337V370.136H152.076V379.243C152.076 379.951 152 381.62 151.874 384.251L151.672 386.831H152.126C154.071 383.695 157.178 382.126 161.421 382.126C165.184 382.126 168.038 383.138 170.009 385.162C171.979 387.186 172.938 390.095 172.938 393.889V414.834L172.913 414.859Z" fill="white"/>
<path d="M200.52 414.859L198.827 410.483H198.6C197.135 412.33 195.62 413.62 194.054 414.354C192.488 415.062 190.467 415.441 187.967 415.441C184.885 415.441 182.461 414.556 180.692 412.811C178.924 411.04 178.04 408.535 178.04 405.272C178.04 402.009 179.228 399.353 181.602 397.734C183.976 396.115 187.563 395.23 192.361 395.053L197.918 394.876V393.459C197.918 390.196 196.251 388.577 192.942 388.577C190.366 388.577 187.36 389.361 183.9 390.904L180.996 384.985C184.683 383.062 188.775 382.076 193.271 382.076C197.767 382.076 200.873 383.012 203.172 384.884C205.47 386.756 206.607 389.614 206.607 393.434V414.834H200.494L200.52 414.859ZM197.943 399.985L194.559 400.087C192.008 400.162 190.114 400.618 188.876 401.478C187.638 402.313 187.007 403.603 187.007 405.323C187.007 407.802 188.421 409.041 191.25 409.041C193.271 409.041 194.912 408.46 196.125 407.296C197.337 406.132 197.943 404.564 197.943 402.641V399.985Z" fill="white"/>
<path d="M240.401 415.441C230.425 415.441 225.424 409.952 225.424 398.974C225.424 393.51 226.788 389.336 229.49 386.452C232.218 383.568 236.108 382.126 241.159 382.126C244.872 382.126 248.206 382.86 251.136 384.302L248.56 391.081C247.17 390.525 245.907 390.069 244.72 389.715C243.533 389.361 242.346 389.184 241.159 389.184C236.613 389.184 234.34 392.422 234.34 398.898C234.34 405.373 236.613 408.333 241.159 408.333C242.851 408.333 244.392 408.105 245.832 407.65C247.271 407.195 248.711 406.487 250.125 405.551V413.038C248.711 413.949 247.271 414.556 245.832 414.91C244.392 415.264 242.573 415.441 240.376 415.441H240.401Z" fill="white"/>
<path d="M284.981 398.746C284.981 403.982 283.617 408.055 280.864 411.014C278.111 413.974 274.272 415.441 269.346 415.441C266.265 415.441 263.562 414.758 261.188 413.418C258.839 412.077 257.021 410.129 255.758 407.6C254.495 405.07 253.864 402.11 253.864 398.746C253.864 393.484 255.228 389.412 257.955 386.503C260.683 383.594 264.548 382.126 269.498 382.126C272.579 382.126 275.282 382.784 277.656 384.125C280.005 385.465 281.824 387.388 283.087 389.892C284.349 392.397 284.981 395.331 284.981 398.721V398.746ZM262.805 398.746C262.805 401.933 263.335 404.336 264.371 405.955C265.406 407.574 267.099 408.409 269.473 408.409C271.847 408.409 273.489 407.6 274.499 405.981C275.509 404.362 276.04 401.958 276.04 398.746C276.04 395.533 275.535 393.181 274.499 391.587C273.463 389.993 271.771 389.209 269.422 389.209C267.073 389.209 265.406 389.993 264.371 391.587C263.335 393.155 262.83 395.559 262.83 398.746H262.805Z" fill="white"/>
<path d="M319.154 414.859H310.415V396.09C310.415 393.763 310.036 392.042 309.253 390.879C308.47 389.715 307.258 389.133 305.591 389.133C303.343 389.133 301.727 389.968 300.716 391.612C299.706 393.257 299.201 395.963 299.201 399.732V414.834H290.462V382.708H297.155L298.342 386.806H298.822C299.681 385.339 300.918 384.175 302.56 383.341C304.202 382.506 306.046 382.101 308.142 382.101C312.941 382.101 316.199 383.669 317.891 386.806H318.674C319.533 385.314 320.796 384.15 322.463 383.341C324.13 382.506 326.024 382.101 328.121 382.101C331.758 382.101 334.511 383.037 336.38 384.909C338.249 386.781 339.184 389.766 339.184 393.889V414.834H330.394V396.065C330.394 393.737 330.015 392.017 329.232 390.854C328.449 389.69 327.237 389.108 325.57 389.108C323.423 389.108 321.832 389.867 320.771 391.41C319.71 392.953 319.18 395.382 319.18 398.721V414.834L319.154 414.859Z" fill="white"/>
<path d="M378.383 379.673C375.024 379.673 372.448 380.937 370.604 383.442C368.76 385.971 367.851 389.462 367.851 393.965C367.851 403.324 371.362 408.004 378.383 408.004C381.338 408.004 384.9 407.271 389.092 405.778V413.241C385.657 414.682 381.793 415.391 377.55 415.391C371.437 415.391 366.79 413.544 363.557 409.826C360.324 406.132 358.708 400.795 358.708 393.864C358.708 389.488 359.491 385.668 361.082 382.379C362.673 379.091 364.946 376.587 367.927 374.816C370.907 373.07 374.393 372.185 378.383 372.185C382.374 372.185 386.541 373.172 390.658 375.145L387.779 382.379C386.213 381.62 384.622 380.988 383.056 380.432C381.49 379.875 379.899 379.597 378.383 379.597V379.673Z" fill="white"/>
<path d="M424.706 398.746C424.706 403.982 423.342 408.055 420.589 411.014C417.836 413.974 413.996 415.441 409.071 415.441C405.99 415.441 403.287 414.758 400.913 413.418C398.564 412.077 396.746 410.129 395.483 407.6C394.22 405.07 393.588 402.11 393.588 398.746C393.588 393.484 394.952 389.412 397.68 386.503C400.408 383.594 404.272 382.126 409.223 382.126C412.304 382.126 415.007 382.784 417.381 384.125C419.73 385.465 421.548 387.388 422.811 389.892C424.074 392.397 424.706 395.331 424.706 398.721V398.746ZM402.53 398.746C402.53 401.933 403.06 404.336 404.095 405.955C405.131 407.574 406.823 408.409 409.198 408.409C411.572 408.409 413.213 407.6 414.224 405.981C415.234 404.362 415.764 401.958 415.764 398.746C415.764 395.533 415.259 393.181 414.224 391.587C413.188 389.993 411.496 389.209 409.147 389.209C406.798 389.209 405.131 389.993 404.095 391.587C403.06 393.155 402.555 395.559 402.555 398.746H402.53Z" fill="white"/>
<path d="M459.788 414.859H451.049V396.09C451.049 393.763 450.645 392.042 449.812 390.879C448.978 389.715 447.69 389.133 445.871 389.133C443.421 389.133 441.653 389.943 440.567 391.587C439.481 393.231 438.926 395.938 438.926 399.732V414.834H430.187V382.708H436.88L438.067 386.806H438.547C439.532 385.263 440.87 384.074 442.588 383.29C444.306 382.506 446.25 382.101 448.422 382.101C452.161 382.101 454.989 383.113 456.909 385.137C458.829 387.16 459.814 390.069 459.814 393.889V414.834L459.788 414.859Z" fill="white"/>
<path d="M484.768 389.31H477.191V414.859H468.452V389.31H463.628V385.086L468.452 382.733V380.381C468.452 376.713 469.361 374.057 471.154 372.362C472.948 370.667 475.827 369.832 479.792 369.832C482.823 369.832 485.501 370.288 487.85 371.173L485.602 377.598C483.834 377.042 482.217 376.764 480.727 376.764C479.489 376.764 478.58 377.143 478.024 377.877C477.469 378.61 477.191 379.571 477.191 380.71V382.708H484.768V389.31ZM489.415 374.436C489.415 371.578 491.007 370.161 494.189 370.161C497.372 370.161 498.963 371.578 498.963 374.436C498.963 375.802 498.559 376.865 497.776 377.598C496.993 378.332 495.78 378.737 494.214 378.737C491.032 378.737 489.441 377.295 489.441 374.436H489.415ZM498.533 414.859H489.794V382.733H498.533V414.859Z" fill="white"/>
<path d="M526.292 414.859L524.599 410.483H524.372C522.907 412.33 521.392 413.62 519.826 414.354C518.26 415.062 516.239 415.441 513.738 415.441C510.657 415.441 508.232 414.556 506.464 412.811C504.696 411.04 503.812 408.535 503.812 405.272C503.812 402.009 504.999 399.353 507.374 397.734C509.748 396.115 513.36 395.23 518.159 395.053L523.715 394.876V393.459C523.715 390.196 522.048 388.577 518.714 388.577C516.138 388.577 513.132 389.361 509.672 390.904L506.767 384.985C510.455 383.062 514.547 382.076 519.043 382.076C523.538 382.076 526.645 383.012 528.943 384.884C531.242 386.756 532.379 389.614 532.379 393.434V414.834H526.266L526.292 414.859ZM523.715 399.985L520.331 400.087C517.78 400.162 515.885 400.618 514.648 401.478C513.41 402.338 512.779 403.603 512.779 405.323C512.779 407.802 514.193 409.041 517.022 409.041C519.043 409.041 520.659 408.46 521.897 407.296C523.109 406.132 523.715 404.564 523.715 402.641V399.985Z" fill="white"/>
<path d="M569.255 414.859H560.515V396.09C560.515 393.763 560.111 392.042 559.278 390.879C558.444 389.715 557.156 389.133 555.338 389.133C552.888 389.133 551.12 389.943 550.034 391.587C548.948 393.231 548.392 395.938 548.392 399.732V414.834H539.653V382.708H546.346L547.533 386.806H548.013C548.998 385.263 550.337 384.074 552.054 383.29C553.772 382.506 555.716 382.101 557.889 382.101C561.627 382.101 564.456 383.113 566.375 385.137C568.295 387.16 569.28 390.069 569.28 393.889V414.834L569.255 414.859Z" fill="white"/>
<path d="M589.511 415.441C579.534 415.441 574.533 409.952 574.533 398.974C574.533 393.51 575.897 389.336 578.6 386.452C581.328 383.568 585.217 382.126 590.269 382.126C593.982 382.126 597.316 382.86 600.246 384.302L597.669 391.081C596.28 390.525 595.017 390.069 593.83 389.715C592.643 389.361 591.456 389.184 590.269 389.184C585.723 389.184 583.449 392.422 583.449 398.898C583.449 405.373 585.723 408.333 590.269 408.333C591.961 408.333 593.502 408.105 594.941 407.65C596.381 407.195 597.821 406.487 599.235 405.551V413.038C597.821 413.949 596.381 414.556 594.941 414.91C593.502 415.264 591.683 415.441 589.486 415.441H589.511ZM594.992 422.044C594.992 424.497 594.26 426.268 592.82 427.356C591.38 428.443 589.132 429 586.127 429C584.636 429 583.247 428.798 581.934 428.393V423.561C582.439 423.688 583.146 423.84 584.005 423.966C584.864 424.093 585.546 424.168 586.026 424.168C587.415 424.168 588.097 423.561 588.097 422.372C588.097 420.779 586.505 419.742 583.323 419.261L585.571 414.834H591.102L590.319 416.58C591.734 417.035 592.87 417.743 593.704 418.73C594.537 419.691 594.967 420.804 594.967 422.018L594.992 422.044Z" fill="white"/>
<path d="M625.301 414.859L623.609 410.483H623.382C621.917 412.33 620.401 413.62 618.835 414.354C617.269 415.062 615.249 415.441 612.748 415.441C609.667 415.441 607.242 414.556 605.474 412.811C603.706 411.04 602.822 408.535 602.822 405.272C602.822 402.009 604.009 399.353 606.383 397.734C608.757 396.115 612.369 395.23 617.168 395.053L622.725 394.876V393.459C622.725 390.196 621.058 388.577 617.724 388.577C615.148 388.577 612.142 389.361 608.682 390.904L605.777 384.985C609.465 383.062 613.556 382.076 618.052 382.076C622.548 382.076 625.655 383.012 627.953 384.884C630.252 386.756 631.388 389.614 631.388 393.434V414.834H625.276L625.301 414.859ZM622.725 399.985L619.34 400.087C616.789 400.162 614.895 400.618 613.657 401.478C612.42 402.338 611.788 403.603 611.788 405.323C611.788 407.802 613.203 409.041 616.032 409.041C618.052 409.041 619.669 408.46 620.906 407.296C622.119 406.132 622.725 404.564 622.725 402.641V399.985Z" fill="white"/>
</svg>
